<svg xmlns="http://www.w3.org/2000/svg" viewBox="0 0 90.75 80.8"><defs><style>.cls-1{fill:#fff;}.cls-1,.cls-2{fill-rule:evenodd;}.cls-2{fill:#ffb502;}</style></defs><g id="Layer_2" data-name="Layer 2"><g id="Layer_1-2" data-name="Layer 1"><path class="cls-1" d="M36.08,72.14H25.13V68.49h3.65V53.89H25.13V50.24h7.3V68.49h3.65ZM3.65,78.44H0V80.8H3.65Zm0-28.2H0V75.79H3.65V72.14h9.13V67.4H14.6V62.9h2.11V59.25h-2V55.6H12.94V50.79H6.17v3.65h4.94v4.81h2v4.5H11v4.74H3.65V58.61H6.24V55H3.65V50.24ZM73,42.94H69.34v3.65H73v21.9H69.34v3.65h11V68.49H76.64V42.94Zm17.76,21.9H87.1v7.3h3.65v-7.3ZM54.42,59.1V55h2.67V50.24h3.65v3.65H58.07v4.77H55.41v4.53h2.66V68h2.67v3.66H57.09V66.84H54.42V62.75H51v4.09H48.31v4.78H44.66V68h2.66V63.19H50V58.66H47.32V53.89H44.66V50.24h3.65V55H51V59.1h3.45ZM28.78,41.82h3.65v3.65H28.78Z"/><polygon class="cls-2" points="33.82 15.6 34.61 15.6 34.61 11.02 36.06 11.02 36.06 9.7 37.41 9.7 37.41 8.08 39.8 8.08 39.8 7.29 37.41 7.29 37.41 6.05 36.32 6.05 36.32 4.85 35.04 4.85 35.04 3.86 34.05 3.86 33.41 3.86 33.3 3.86 33.3 0 32.51 0 32.51 3.86 32.42 3.86 32.42 4.48 31.04 4.48 31.04 7.29 26.32 7.29 26.32 8.08 29.42 8.08 29.42 9.39 30.89 9.39 30.89 10.8 32.33 10.8 32.33 11.91 33.82 11.91 33.82 15.6"/><polygon class="cls-2" points="50.42 23.05 51.28 23.05 51.28 18.07 52.85 18.07 52.85 16.64 54.32 16.64 54.32 14.88 56.92 14.88 56.92 14.03 54.32 14.03 54.32 12.67 53.14 12.67 53.14 11.37 51.74 11.37 51.74 10.29 50.67 10.29 49.97 10.29 49.85 10.29 49.85 6.1 48.99 6.1 48.99 10.29 48.9 10.29 48.9 10.97 47.39 10.97 47.39 14.03 42.27 14.03 42.27 14.88 45.64 14.88 45.64 16.31 47.23 16.31 47.23 17.84 48.8 17.84 48.8 19.04 50.42 19.04 50.42 23.05"/><polygon class="cls-2" points="33.49 33.77 32.75 33.77 32.75 29.46 31.38 29.46 31.38 28.22 30.11 28.22 30.11 26.69 27.85 26.69 27.85 25.95 30.11 25.95 30.11 24.77 31.13 24.77 31.13 23.64 32.34 23.64 32.34 22.71 33.27 22.71 33.88 22.71 33.98 22.71 33.98 19.08 34.73 19.08 34.73 22.71 34.81 22.71 34.81 23.3 36.12 23.3 36.12 25.95 40.56 25.95 40.56 26.69 37.64 26.69 37.64 27.93 36.26 27.93 36.26 29.25 34.9 29.25 34.9 30.3 33.49 30.3 33.49 33.77"/></g></g></svg>