<svg version="1.2" xmlns="http://www.w3.org/2000/svg" viewBox="0 0 36 36" width="36" height="36">
	<title>solana-logo-svg</title>
	<defs>
		<linearGradient id="g1" x1="32.6" y1=".6" x2="12.9" y2="38.4" gradientUnits="userSpaceOnUse">
			<stop offset="0" stop-color="#ffffff"/>
			<stop offset="1" stop-color="#ffffff"/>
		</linearGradient>
		<linearGradient id="g2" x1="23.9" y1="-3.9" x2="4.2" y2="33.9" gradientUnits="userSpaceOnUse">
			<stop offset="0" stop-color="#ffffff"/>
			<stop offset="1" stop-color="#ffffff"/>
		</linearGradient>
		<linearGradient id="g3" x1="28.2" y1="-1.6" x2="8.5" y2="36.1" gradientUnits="userSpaceOnUse">
			<stop offset="0" stop-color="#ffffff"/>
			<stop offset="1" stop-color="#ffffff"/>
		</linearGradient>
	</defs>
	<style>
		.s0 { fill: url(#g1) } 
		.s1 { fill: url(#g2) } 
		.s2 { fill: url(#g3) } 
	</style>
	<path id="Layer" class="s0" d="m5.8 25.4c0.3-0.3 0.6-0.4 0.9-0.4h28.7c0.5 0 0.8 0.6 0.4 1l-5.7 5.6c-0.2 0.2-0.5 0.4-0.8 0.4h-28.7c-0.5 0-0.8-0.7-0.4-1z"/>
	<path id="Layer" class="s1" d="m5.8 4.3c0.3-0.2 0.6-0.3 0.9-0.3h28.7c0.5 0 0.8 0.6 0.4 1l-5.7 5.6c-0.2 0.2-0.5 0.4-0.8 0.4h-28.7c-0.5 0-0.8-0.7-0.4-1z"/>
	<path id="Layer" class="s2" d="m30.1 14.8c-0.2-0.2-0.5-0.4-0.8-0.4h-28.7c-0.5 0-0.8 0.7-0.4 1l5.6 5.7c0.3 0.2 0.6 0.3 0.9 0.3h28.7c0.5 0 0.8-0.6 0.4-1z"/>
</svg>