<svg id="a4eca55c-3fac-498a-a533-5126d310da97" data-name="Layer 1" xmlns="http://www.w3.org/2000/svg" viewBox="0 0 980 491.5138"><title>Stake</title><path d="M126.7616,456.3044c-96.8023-52.3931-37.4236-166.66,61.3748-162.6681s75.3462,76.8432,33.4318,103.2893c0,0,29.9389,16.9653,58.3808,6.9857S355.7943,277.6689,223.5641,257.71,10,306.7762,10,392.9337c0,65.3838,77.0156,100.2954,151.0281,138.2179s102.4545,85.8249,36.09,141.2118S47.9226,693.82,71.3747,638.9317c13.4725-30.9369,61.8737-61.3747,61.8737-61.3747S93.8289,537.14,45.9266,576.06C9.9789,604.502-24.43,743.2188,101.8126,745.7138S332.3422,641.9256,297.4134,571.07C273.4623,525.351,223.5641,508.6974,126.7616,456.3044Z" transform="translate(-10 -254.2431)" style="fill:#9ea3ad"/><path d="M982.3218,660.1805c-13.5772,11.0513-45.376,31.1443-97.1079,31.1443-68.2642,0-113.6883-100.9263-122.7382-173.0218,36.3285-23.3381,79.0787-56.7127,97.9554-93.7671,3.9919-5.3225-27.9831-28.8081-31.9349-23.2858,0,0-29.5223,45.44-102.4278,95.1909,17.3-56.25,43.4213-131.4449,39.39-148.9146-4.4908-19.46-43.4114-27.444-50.8961-16.9654,0,0-2.4949,27.444-27.7766,113.9342-13.6227,46.6041-23.4178,96.7618-29.12,135.4157-12.949,17.5817-31.9629,39.8559-41.899,34.5777-15.967-8.4817,7.6024-98.5184,9.5959-114.4854,1.798-14.4036-10.69-26.99-26.3251-22.0255a9.1,9.1,0,0,1-8.8727-1.9739c-11.6284-10.8076-44.8131-24.6834-87.1637,20.716-23.5357,25.227-37.3942,62.6708-39.0026,94.819-15.3941,10.0868-44.76,28.1194-58.6382,28.5979-17.8352.6151-1.56-70.97,16.2433-137.5035,29.8615-8.26,55.4534-15.3844,61.93-17.3472,16.4664-4.99,39.6444-49.0553,33.9307-53.89-3.56-3.0126-31.2938-.67-80.4218,11.6253,12.7-53.4075,20.2113-97.6165,20.2113-97.6165s-53.89,10.645-60.543,25.2819c-2.7984,6.1563-12.4239,45.0365-22.9845,90.3475-29.1548,9.1637-62.4517,20.698-99.6489,35.0332,0,0,10.3625,44.6056,33.3156,38.1189,6.7617-1.911,27.7151-7.6892,52.98-14.6547-9.8732,44.1364-18.3375,84.0565-20.2137,96.654-4.5081,30.2685,15.9227,100.4287,126.4569,25.237,4.978,19.2124,16.7762,32.6178,36.3842,33.6187,41.901,2.8534,72.8383-27.0872,72.8383-27.0872s9.4787,28.2208,35.9405,27.0872c12.2988-.5272,27.6174-14.0906,40.4894-28.448-.5989,8.7277-.6315,14.9253-.0794,17.8272,2.7929,14.6809,53.391,7.9837,56.8839,0,2.8528-6.52-2.2765-50.9871,4.7163-97.9775,3.2229-1.6656,7.0245-3.6738,11.2724-5.9894,4.8424,39.7967,30.8045,181.3091,155.162,181.3091,68.6037,0,98.2384-28.0708,106.9048-38.5394A12.6524,12.6524,0,0,0,990,675.1459V663.79A4.6918,4.6918,0,0,0,982.3218,660.1805ZM531.4363,617.4788c-44.911,7.4851-14.97-97.2286,45.3994-117.4756C585.767,497.013,576.3471,609.9937,531.4363,617.4788Z" transform="translate(-10 -254.2431)" style="fill:#9ea3ad"/><path d="M846.7922,516.6812c-69.13,86.4121,27.39,194.5909,139.6574,104.1036a6.6231,6.6231,0,0,0,1.6984-8.1925c-2.5923-5.0152-7.3763-11.7792-10.87-16.49a6.64,6.64,0,0,0-9.37-1.3269c-9.6377,7.3753-32.1271,21.889-61.132,23.0859-20.1013.6506-27.3117-18.9094-24.9232-42.9644,27.5117.4955,85.4648-3.936,98.6659-48.5684C997.9837,467.282,916.65,429.3594,846.7922,516.6812Zm97.8005-27.169c10.4481,9.9294-5.3515,69.3726-60.2418,70.7839C892.0744,528.0573,914.4389,493.52,944.5927,489.5122Z" transform="translate(-10 -254.2431)" style="fill:#9ea3ad"/></svg>