<svg id="b62b5c49-ae6e-466d-af7d-d77dce56a58f" data-name="Layer 1" xmlns="http://www.w3.org/2000/svg" viewBox="0 0 980 576.3448"><title>BEST BUY</title><path d="M183.77,334.5424s34.02-12.54,34.02-50.76-47.16-63.3-78.21-63.3H10v244.82H143.16c66.28,0,90.75-32.24,90.75-69.27C233.91,348.2724,183.77,334.5424,183.77,334.5424Zm-97.33-59.13h35.22a19.705,19.705,0,1,1,0,39.41H86.44Zm42.99,136.14H86.44v-48.95h42.99a24.475,24.475,0,1,1,0,48.95Z" transform="translate(-10 -211.8276)" style="fill:#9da3ae"/><path d="M245.87,609.9524s34.03-12.54,34.03-50.76-47.17-63.3-78.21-63.3H72.1v244.82H205.27c66.28,0,90.75-32.24,90.75-69.27C296.02,623.6824,245.87,609.9524,245.87,609.9524Zm-97.33-59.13h35.22a19.705,19.705,0,1,1,0,39.41H148.54Zm42.99,136.15H148.54v-48.96h42.99a24.48,24.48,0,1,1,0,48.96Z" transform="translate(-10 -211.8276)" style="fill:#9da3ae"/><polygon points="846.096 8.65 640.097 8.65 640.097 65.83 705.479 65.83 705.479 253.47 780.713 253.47 780.713 65.83 846.096 65.83 846.096 8.65" style="fill:#9da3ae"/><polygon points="430.515 253.47 430.515 196.29 312.289 196.29 312.289 154.35 407.228 154.35 407.228 98.223 312.289 98.223 312.289 65.83 430.515 65.83 430.515 8.65 312.289 8.65 286.017 8.65 232.278 8.65 232.278 253.47 286.017 253.47 312.289 253.47 430.515 253.47" style="fill:#9da3ae"/><path d="M541.2754,412.0049a62.2641,62.2641,0,0,1-47.0215-21.4955L450.815,432.157s34.4824,39.4086,99.4169,39.4086,99.8648-43.4389,99.8648-81.0562S622.3316,327.814,581.58,316.6185c-28.2129-6.5681-43.8115-13.2585-37.6172-31.497,5.3738-15.8232,34.93-15.5246,52.3954,3.284l43.439-44.3345s-30.0043-32.2434-85.5345-32.2434-97.6256,32.6912-97.6256,83.2953,59.1127,67.1736,85.9822,74.7866S571.7275,412.0049,541.2754,412.0049Z" transform="translate(-10 -211.8276)" style="fill:#9da3ae"/><path d="M445.2918,640.246a32.84,32.84,0,0,1-32.84,32.84h0a32.84,32.84,0,0,1-32.84-32.84V495.89H306.7648V633.2321A107.4777,107.4777,0,0,0,414.2425,740.71h0A107.4778,107.4778,0,0,0,521.7205,633.2321V495.89H445.2918Z" transform="translate(-10 -211.8276)" style="fill:#9da3ae"/><polygon points="648.463 368.11 596.51 284.06 521.282 284.06 612.629 437.375 612.629 528.88 684.279 528.88 684.279 437.375 775.644 284.06 700.398 284.06 648.463 368.11" style="fill:#9da3ae"/><path d="M822.35,560.5924l-5.87,14.38-5.87-14.38h-4.24v18.75h2.73v-15.75h.1l6.32,15.75h1.78l6.33-15.75h.09v15.75h2.73v-18.75Zm-34.87,0v2.46h6.19v16.29h2.73v-16.29h6.06v-2.46Z" transform="translate(-10 -211.8276)" style="fill:#9da3ae"/><path d="M792.96,629.2024l-47.92,41.91v75.16l47.92,41.9H990v-158.97Zm-19.49,88.67a9.18,9.18,0,1,1,9.18-9.18A9.18,9.18,0,0,1,773.47,717.8724Z" transform="translate(-10 -211.8276)" style="fill:#9da3ae"/></svg>